<svg width="261" height="148" viewBox="0 0 261 148" fill="none" xmlns="http://www.w3.org/2000/svg">
<g clip-path="url(#clip0_251_899)">
<path d="M195.738 0.000232333H143.447C140.924 0.000231373 138.476 0.853111 136.505 2.41868C134.534 3.98424 133.158 6.16932 132.604 8.61475L106.182 125.042C105.894 126.312 105.889 127.629 106.167 128.901C106.445 130.173 107.001 131.37 107.793 132.406C108.586 133.442 109.598 134.294 110.757 134.901C111.916 135.508 113.195 135.856 114.504 135.92L168.259 138.551C171.138 138.692 173.97 137.787 176.226 136.007C178.483 134.226 180.01 131.69 180.523 128.873L195.511 46.5572L196.626 46.8737L199.494 31.2718L198.346 30.9867L202.53 8.00953C202.709 7.02537 202.667 6.01406 202.408 5.04769C202.149 4.08131 201.678 3.18368 201.029 2.41877C200.381 1.65387 199.57 1.04053 198.656 0.62248C197.741 0.20443 196.745 -0.00803499 195.738 0.000232333Z" fill="#3F3D56"/>
<path d="M150.332 2.50977H144.228C142.475 2.50977 140.775 3.10535 139.41 4.19764C138.044 5.28994 137.096 6.81324 136.722 8.51468L111.361 123.992C111.215 124.657 111.215 125.345 111.362 126.01C111.508 126.675 111.797 127.301 112.209 127.844C112.621 128.388 113.146 128.837 113.749 129.16C114.351 129.484 115.017 129.674 115.701 129.719L169.282 133.208C170.794 133.306 172.289 132.848 173.483 131.921C174.676 130.994 175.484 129.663 175.753 128.182L197.393 8.82486C197.534 8.05233 197.501 7.25867 197.299 6.4999C197.096 5.74113 196.729 5.03573 196.222 4.43349C195.715 3.83124 195.082 3.34683 194.366 3.01444C193.65 2.68204 192.87 2.50977 192.079 2.50977H186.289C185.728 2.50977 185.184 2.69331 184.739 3.03199C184.294 3.37067 183.974 3.84559 183.828 4.38322C183.7 4.85785 183.417 5.27711 183.024 5.57611C182.632 5.8751 182.151 6.03714 181.656 6.03714H154.166C153.197 6.03714 152.264 5.67383 151.553 5.01986C150.842 4.36588 150.406 3.46944 150.332 2.50977L150.332 2.50977Z" fill="#EF473A"/>
<path d="M227.78 102.695C219.419 115.82 221.986 132.336 221.986 132.336C221.986 132.336 238.109 127.571 246.47 114.445C254.832 101.319 252.265 84.8037 252.265 84.8037C252.265 84.8037 236.142 89.569 227.78 102.695Z" fill="#D0CDE1"/>
<path d="M234.227 104.908C233.765 120.435 222.336 132.696 222.336 132.696C222.336 132.696 211.657 119.785 212.119 104.258C212.581 88.7316 224.01 76.4697 224.01 76.4697C224.01 76.4697 234.69 89.3814 234.227 104.908Z" fill="#EF473A"/>
<path d="M25.199 85.3254C27.8395 85.3254 29.98 83.8779 29.98 82.0924C29.98 80.3068 27.8395 78.8594 25.199 78.8594C22.5585 78.8594 20.418 80.3068 20.418 82.0924C20.418 83.8779 22.5585 85.3254 25.199 85.3254Z" fill="#EF473A"/>
<path d="M25.1992 82.0918C25.1992 82.0918 47.9091 121.292 47.3115 126.95L25.1992 82.0918Z" fill="#EF473A"/>
<path d="M40.1399 84.7959V107.727C35.3828 101.179 25.8946 94.4363 8.11426 88.9628L40.1399 132.664V132.996C40.1399 132.996 40.2004 132.964 40.313 132.901L40.3676 132.975C40.3676 132.975 40.4133 132.914 40.495 132.797C44.2263 130.65 75.5195 111.29 40.1399 84.7959Z" fill="#3F3D56"/>
<path d="M199.491 85.3254C202.131 85.3254 204.272 83.8779 204.272 82.0924C204.272 80.3068 202.131 78.8594 199.491 78.8594C196.85 78.8594 194.71 80.3068 194.71 82.0924C194.71 83.8779 196.85 85.3254 199.491 85.3254Z" fill="#EF473A"/>
<path d="M199.491 82.0918C199.491 82.0918 222.201 121.292 221.604 126.95L199.491 82.0918Z" fill="#EF473A"/>
<path d="M214.432 84.7959V107.727C209.675 101.179 200.187 94.4363 182.406 88.9628L214.432 132.664V132.996C214.432 132.996 214.492 132.964 214.605 132.901L214.66 132.975C214.66 132.975 214.705 132.914 214.787 132.797C218.518 130.65 249.811 111.29 214.432 84.7959Z" fill="#3F3D56"/>
<path d="M9.87315 126.303C12.3832 130.928 17.7104 132.913 17.7104 132.913C17.7104 132.913 18.9681 127.4 16.458 122.776C13.9479 118.151 8.62072 116.166 8.62072 116.166C8.62072 116.166 7.3631 121.679 9.87315 126.303Z" fill="#D0CDE1"/>
<path d="M11.5985 124.782C16.1302 127.49 17.8755 132.87 17.8755 132.87C17.8755 132.87 12.2735 133.859 7.74182 131.15C3.21014 128.442 1.46484 123.062 1.46484 123.062C1.46484 123.062 7.06686 122.073 11.5985 124.782Z" fill="#EF473A"/>
<path d="M159.825 126.303C162.335 130.928 167.663 132.913 167.663 132.913C167.663 132.913 168.92 127.4 166.41 122.776C163.9 118.151 158.573 116.166 158.573 116.166C158.573 116.166 157.315 121.679 159.825 126.303Z" fill="#3F3D56"/>
<path d="M161.551 124.782C166.082 127.49 167.828 132.87 167.828 132.87C167.828 132.87 162.226 133.859 157.694 131.15C153.162 128.442 151.417 123.062 151.417 123.062C151.417 123.062 157.019 122.073 161.551 124.782Z" fill="#3F3D56"/>
<path d="M98.5411 122.849C101.051 127.474 106.378 129.459 106.378 129.459C106.378 129.459 107.636 123.946 105.126 119.322C102.616 114.697 97.2887 112.712 97.2887 112.712C97.2887 112.712 96.0311 118.225 98.5411 122.849Z" fill="#3F3D56"/>
<path d="M100.267 121.328C104.798 124.036 106.543 129.416 106.543 129.416C106.543 129.416 100.941 130.405 96.4098 127.696C91.8781 124.988 90.1328 119.608 90.1328 119.608C90.1328 119.608 95.7348 118.619 100.267 121.328Z" fill="#EF473A"/>
<path d="M71.3761 122.849C73.8861 127.474 79.2134 129.459 79.2134 129.459C79.2134 129.459 80.471 123.946 77.9609 119.322C75.4509 114.697 70.1237 112.712 70.1237 112.712C70.1237 112.712 68.866 118.225 71.3761 122.849Z" fill="#D0CDE1"/>
<path d="M73.1005 121.328C77.6322 124.036 79.3775 129.416 79.3775 129.416C79.3775 129.416 73.7755 130.405 69.2438 127.696C64.7121 124.988 62.9668 119.608 62.9668 119.608C62.9668 119.608 68.5688 118.619 73.1005 121.328Z" fill="#EF473A"/>
<path d="M251.101 126.303C248.591 130.928 243.263 132.913 243.263 132.913C243.263 132.913 242.006 127.4 244.516 122.776C247.026 118.151 252.353 116.166 252.353 116.166C252.353 116.166 253.611 121.679 251.101 126.303Z" fill="#3F3D56"/>
<path d="M249.376 124.782C244.844 127.49 243.099 132.87 243.099 132.87C243.099 132.87 248.701 133.859 253.232 131.15C257.764 128.442 259.509 123.062 259.509 123.062C259.509 123.062 253.907 122.073 249.376 124.782Z" fill="#EF473A"/>
<path d="M261 136.282C261 136.282 254.749 134.442 242.316 132.673L242.54 128.894C244.411 107.613 229.746 75.9078 229.746 75.9078C235.394 91.681 238.196 108.321 238.023 125.062C236.078 121.787 232.356 118.274 225.261 116.177C225.261 116.177 234.551 123.894 237.286 132.007C227.911 130.856 215.765 129.846 200.87 129.55L203.94 122.289L197.954 128.386C197.954 128.386 195.23 110.351 189.872 109.709L194.018 127.373C194.018 127.373 189.338 123.888 188.272 124.255L190.976 129.464C189.314 129.467 187.622 129.48 185.9 129.502C187.184 108.247 173.025 77.6351 173.025 77.6351C178.673 93.4082 181.475 110.048 181.302 126.789C179.357 123.514 175.635 120.001 168.54 117.904C168.54 117.904 174.928 123.21 178.669 129.648C169.261 129.907 159.052 130.452 148.046 131.372C146.768 131.335 145.469 131.304 144.149 131.277L145.586 127.879L146.141 126.808C146.11 126.799 146.079 126.792 146.047 126.788L147.218 124.016L143.412 127.894C142.556 128.409 141.698 128.996 141.117 129.406C141.055 129.042 140.968 128.552 140.856 127.966L144.542 112.262C142.167 112.546 140.31 116.248 138.978 120.281C137.632 115.941 135.687 111.74 133.151 111.436L137.013 127.892C136.951 128.203 136.893 128.496 136.841 128.769C135.654 127.919 132.495 125.743 131.587 125.975L130.474 124.842L133.16 131.195C131.872 131.201 130.567 131.212 129.245 131.228C129.025 131.204 128.806 131.18 128.587 131.156L130.526 126.569L126.268 130.906C125.575 130.833 124.884 130.761 124.196 130.691C123.31 125.992 120.716 114.499 116.458 113.989L120.288 130.303C119.654 130.243 119.023 130.183 118.395 130.125C117.027 129.242 115.428 128.339 114.859 128.535L115.55 129.867C98.5006 128.367 83.3219 127.765 70.0238 127.736L72.7278 122.528C71.6625 122.161 66.9822 125.645 66.9822 125.645L71.1281 107.982C67.7963 108.381 65.4834 115.506 64.2103 120.838C63.0135 118.074 61.5217 115.93 59.7373 115.716L62.073 125.668L57.0605 120.562L60.1299 127.823C45.2352 128.119 33.0889 129.129 23.7137 130.28C26.4486 122.167 35.7393 114.45 35.7393 114.45C28.644 116.546 24.9222 120.059 22.9774 123.335C22.8036 106.594 25.6056 89.9538 31.2544 74.1807C31.2544 74.1807 16.5888 105.885 18.4601 127.167L18.6839 130.946C6.25082 132.715 0 134.555 0 134.555L60.7586 135.311L61.2968 136.348C53.3053 137.401 44.9826 138.652 36.3285 140.1L204.279 138.009C204.279 138.009 202.968 137.624 200.361 137.037L261 136.282Z" fill="#3F3D56"/>
<path d="M48.0791 148C48.0791 148 88.0663 142.171 112.841 148H48.0791Z" fill="#3F3D56"/>
<path d="M201.073 143.018C201.073 143.018 224.757 137.051 239.431 143.018H201.073Z" fill="#3F3D56"/>
<path d="M164.717 111.284C164.614 111.284 164.51 111.281 164.406 111.274L160.7 111.032L124.384 108.668C123.78 108.63 123.195 108.447 122.677 108.135C122.16 107.824 121.726 107.393 121.413 106.879C120.904 106.057 120.736 105.072 120.945 104.13L139.889 17.8738C140.184 16.5579 140.921 15.3808 141.978 14.5352C143.034 13.6896 144.349 13.2258 145.706 13.2197H181.449C182.071 13.22 182.685 13.3558 183.249 13.6176C183.812 13.8793 184.311 14.2607 184.71 14.7348C185.108 15.2089 185.398 15.7641 185.557 16.3613C185.716 16.9586 185.742 17.5833 185.631 18.1913L169.467 107.343C169.318 108.162 168.957 108.928 168.421 109.567L168.376 109.674L168.329 109.675C167.932 110.118 167.456 110.485 166.925 110.756L166.899 110.768C166.223 111.108 165.475 111.285 164.717 111.284ZM145.706 13.6515C144.448 13.6571 143.23 14.0871 142.25 14.8709C141.27 15.6548 140.587 16.746 140.314 17.9658L121.37 104.222C121.197 105.02 121.325 105.854 121.731 106.564C122.136 107.274 122.791 107.811 123.569 108.073C123.842 108.164 124.126 108.219 124.413 108.238L164.434 110.843C165.217 110.894 165.999 110.736 166.699 110.385L166.724 110.373C167.204 110.129 167.634 109.798 167.994 109.399L168.064 109.317C168.565 108.73 168.902 108.023 169.039 107.266L185.204 18.1148L185.417 18.153L185.204 18.1148C185.302 17.5689 185.28 17.0081 185.137 16.472C184.994 15.9359 184.734 15.4374 184.376 15.0118C184.018 14.5862 183.57 14.2438 183.065 14.0088C182.559 13.7737 182.008 13.6518 181.449 13.6515H145.706Z" fill="#3F3D56"/>
<path d="M125.943 101.191C125.943 101.191 119.123 109.093 120.556 109.609C121.99 110.125 128.682 104.479 128.252 102.483L125.943 101.191Z" fill="#FFB9B9"/>
<path d="M166.084 108.514C166.084 108.514 169.787 118.251 168.262 118.251C166.738 118.251 162.382 110.677 163.471 108.946L166.084 108.514Z" fill="#FFB9B9"/>
<path d="M168.388 49.5775C167.777 48.7186 167.025 47.968 166.38 47.1339C164.892 45.2108 164.378 42.6484 162.382 41.1736C160.406 39.7144 157.272 38.2781 154.801 38.3932C151.543 38.5449 148.959 41.0553 146.714 43.4043C144.998 45.1995 143.282 46.9946 141.566 48.7898C140.325 50.0884 139.037 51.4671 138.59 53.202C138.16 54.8694 138.58 56.6607 139.367 58.194C140.185 59.7494 141.332 61.1103 142.73 62.183C144.454 59.8257 146.868 56.5708 146.868 56.5708L147.43 64.667C150.349 65.6282 153.485 65.8172 156.562 65.6047L157.473 62.2852L158.43 65.4208C162.106 64.9366 165.8 63.6755 168.076 60.8252C170.592 57.6741 170.725 52.8616 168.388 49.5775Z" fill="#2F2E41"/>
<path d="M154.323 56.8C158.052 56.8 161.075 53.7969 161.075 50.0924C161.075 46.3879 158.052 43.3848 154.323 43.3848C150.594 43.3848 147.571 46.3879 147.571 50.0924C147.571 53.7969 150.594 56.8 154.323 56.8Z" fill="#FFB9B9"/>
<path d="M149.967 53.3379C149.967 53.3379 150.402 58.5309 147.571 58.9636C144.74 59.3964 141.69 58.9636 141.69 60.6946C141.69 62.4256 143.868 78.221 143.868 78.221L149.313 77.7883L156.937 70.4315L161.075 62.4256C161.075 62.4256 156.065 60.2619 158.243 53.7706L149.967 53.3379Z" fill="#FFB9B9"/>
<path d="M146.699 75.1917L144.521 69.3496L144.957 61.3437C144.957 61.3437 149.739 60.6946 149.635 56.7998L146.046 58.3144L137.769 59.6127V67.1858C137.769 67.1858 134.938 71.7297 138.205 76.2736L139.73 85.7941L155.411 84.7122L160.421 78.221L166.737 65.8876L160.203 61.1273L161.074 59.8291L157.741 57.6698L158.243 61.7764L156.718 64.3729C156.718 64.3729 149.749 65.6712 146.699 75.1917Z" fill="white"/>
<path d="M139.077 60.046L137.77 59.6133C137.77 59.6133 135.157 60.6951 135.157 64.1572C135.157 67.6192 124.702 101.806 124.702 101.806L129.494 103.105L136.028 87.3093L139.948 74.1104L139.077 60.046Z" fill="white"/>
<path d="M164.995 65.8881H166.737C166.737 65.8881 167.826 65.0226 167.608 71.2975C167.391 77.5724 168.262 110.678 168.262 110.678L161.945 110.245L160.421 74.5431L164.995 65.8881Z" fill="white"/>
<path d="M160.714 110.816L148.811 110.041L145.919 109.853L139.332 109.424C139.232 109.072 139.145 108.767 139.075 108.513C136.898 100.507 139.295 89.2565 139.295 89.2565C139.295 89.2565 138.858 88.1748 139.295 87.525C139.729 86.8751 139.512 87.0932 138.64 86.2274C137.769 85.3617 138.64 86.2274 139.075 85.1458C139.512 84.062 139.075 85.1458 139.075 84.28C139.098 83.8082 138.943 83.345 138.64 82.9803C138.82 82.84 139.015 82.7211 139.223 82.6262C143.367 80.6529 156.67 83.0818 156.67 83.0818C156.67 83.0818 156.661 83.0926 156.646 83.1142C156.541 83.2653 156.146 83.926 156.717 84.4959C157.372 85.1458 156.283 85.1458 156.065 85.7935C155.846 86.4433 156.065 85.7935 156.283 86.4433C156.5 87.0932 155.846 87.9568 155.846 87.9568C161.453 92.6375 161.748 102.424 160.714 110.816Z" fill="#2F2E41"/>
<path d="M148.812 110.041L145.919 109.854C146.41 107.636 146.699 106.35 146.699 106.35L148.812 110.041Z" fill="#2F2E41"/>
<path d="M147.026 45.2241C147.026 45.2241 152.471 51.7154 163.361 48.037L160.312 42.6276L153.125 40.4639L147.026 45.2241Z" fill="#2F2E41"/>
<path d="M96.7017 140.689C96.7017 140.689 99.7788 143.264 101.398 143.103C103.018 142.942 106.095 142.942 104.799 144.712C103.504 146.482 98.1593 147.447 95.8919 147.608C93.6246 147.769 88.6041 147.93 88.928 146.964C89.2519 145.999 89.5758 141.494 90.8715 141.172C92.1671 140.85 96.7017 140.689 96.7017 140.689Z" fill="#575A89"/>
<path d="M79.0402 138.162C79.0402 138.162 81.3076 141.463 82.9111 141.741C84.5146 142.018 87.4784 142.84 85.7517 144.199C84.025 145.557 78.6161 145.06 76.3886 144.61C74.1612 144.159 69.2819 142.974 69.855 142.131C70.4282 141.287 71.9589 137.035 73.2939 137.071C74.6289 137.107 79.0402 138.162 79.0402 138.162Z" fill="#575A89"/>
<path d="M98.5034 90.9519C98.5034 90.9519 100.588 105.133 100.102 107.707C99.616 110.282 99.2922 114.304 99.2922 114.304C99.2922 114.304 99.6161 117.683 99.2922 119.291C98.9683 120.9 97.0248 136.185 97.0248 136.507C97.0248 136.829 97.3487 137.794 97.0248 138.598C96.7009 139.403 96.0531 138.759 97.0248 140.046C97.9965 141.334 97.3487 141.655 97.1868 141.655C97.0248 141.655 90.7087 142.299 90.3848 141.655C90.0609 141.012 90.5468 140.851 90.3848 140.046C90.2229 139.242 90.0609 139.081 89.737 138.92C89.4131 138.759 88.7653 139.081 89.2512 138.277C89.737 137.472 90.8707 136.507 90.5468 136.024C90.2229 135.541 90.7087 132.002 90.7087 132.002C90.7087 132.002 91.0326 124.118 91.1946 119.291C91.3565 114.465 89.737 109.477 89.737 109.477C89.5353 113.426 88.0589 117.206 85.5263 120.257C81.3155 125.244 79.2102 134.576 79.2102 134.576C79.2102 134.576 78.2385 136.024 78.7243 137.311C79.2102 138.598 80.6677 137.794 79.2102 138.598C77.7526 139.403 72.7321 138.277 72.2463 137.794C71.7604 137.311 72.8941 136.668 72.5702 135.381C72.2463 134.093 70.9507 134.415 72.0843 133.772C73.218 133.128 73.5419 133.289 73.5419 132.645C73.5419 132.002 76.457 118.004 80.9916 113.982L81.3155 99.341C81.3155 99.341 77.2668 89.0439 81.4775 88.0786C85.6882 87.1132 98.5034 90.9519 98.5034 90.9519Z" fill="#2F2E41"/>
<path d="M95.5673 52.843C95.5673 52.843 92.8142 59.6004 93.462 60.5657C94.1098 61.5311 85.5264 57.3479 85.5264 57.3479C85.5264 57.3479 88.2795 50.5905 88.2795 49.786C88.2795 48.9816 95.5673 52.843 95.5673 52.843Z" fill="#FFB9B9"/>
<path d="M93.543 54.5329C96.8524 54.5329 99.5352 51.8677 99.5352 48.5799C99.5352 45.2922 96.8524 42.627 93.543 42.627C90.2336 42.627 87.5508 45.2922 87.5508 48.5799C87.5508 51.8677 90.2336 54.5329 93.543 54.5329Z" fill="#FFB9B9"/>
<path d="M85.5271 54.6127C85.5271 54.6127 89.7378 54.13 91.8432 56.7042C93.9485 59.2785 94.2724 59.9221 94.2724 59.9221C94.2724 59.9221 99.2929 67.9666 98.3212 71.9889C98.0844 72.352 97.8681 72.728 97.6734 73.1151C97.3495 73.7587 97.3495 82.7686 97.6734 84.2166C97.9973 85.6646 98.3212 86.1473 97.9973 88.2389C97.6734 90.3304 100.589 93.7092 97.1876 94.3527C93.7866 94.9963 91.1954 94.5136 90.0617 93.0656C88.928 91.6176 89.8997 90.6522 86.3368 90.6522C82.7739 90.6522 80.5066 88.2389 80.5066 88.2389C80.5066 88.2389 82.288 86.3082 81.6402 85.9864C80.9924 85.6646 81.6402 84.8602 81.9641 84.0557C82.288 83.2512 82.288 82.6077 81.8022 82.6077C81.3163 82.6077 81.6402 82.2859 81.9641 81.4814C82.288 80.677 76.2958 66.8404 79.8588 62.8181C83.4217 58.7958 85.2031 56.5433 85.2031 56.5433C85.2031 56.5433 84.5554 54.13 85.5271 54.6127Z" fill="#2F2E41"/>
<path d="M94.7576 69.8975V76.9767L99.94 94.0311C99.94 94.0311 103.341 102.88 99.94 102.88C96.5391 102.88 96.7213 94.4341 96.7213 94.4341L89.4132 81.6425C89.4132 81.6425 86.4981 71.5064 86.822 70.7019C87.1459 69.8975 94.7576 69.8975 94.7576 69.8975Z" fill="#FFB9B9"/>
<path d="M92.0046 59.4402C92.0046 59.4402 96.8631 61.3709 95.5675 66.5194C94.2719 71.6679 95.5675 71.507 95.5675 71.507C95.5675 71.507 88.9275 70.8635 86.8222 72.3115L86.3363 70.3808C86.3363 70.3808 84.3929 59.2793 92.0046 59.4402Z" fill="#2F2E41"/>
<path d="M95.5898 44.1102C95.9637 44.242 96.3648 44.2793 96.7568 44.2187C97.1489 44.1581 97.5196 44.0015 97.8355 43.763C98.446 43.2633 98.7049 42.3414 98.3459 41.6412C98.0358 41.0366 97.3725 40.7049 96.7365 40.4576C95.3335 39.9124 93.8556 39.5809 92.3529 39.4743C91.6365 39.4236 90.8841 39.4317 90.2447 39.7568C89.9284 39.9177 89.6536 40.1499 89.3403 40.3165C88.7643 40.6229 88.0939 40.691 87.4713 40.8883C86.8344 41.0947 86.2496 41.4346 85.7563 41.885C85.2631 42.3354 84.873 42.8858 84.6124 43.499C84.4432 43.9154 84.3249 44.3505 84.2603 44.795C84.0741 46.0119 84.2042 47.2558 84.6382 48.4087C85.3285 50.2347 86.7764 51.8311 86.8581 53.78C87.7444 53.1412 88.073 51.9883 88.7832 51.1605C89.3115 50.5486 90.0331 50.1327 90.8301 49.9809C91.0508 49.9676 91.2628 49.8908 91.4403 49.7599C91.5639 49.6132 91.6414 49.4336 91.6631 49.2435L92.2695 46.3992C92.3929 45.8203 92.5489 45.1892 93.0278 44.8375C93.326 44.648 93.6642 44.5296 94.0161 44.4916C94.8523 44.3464 95.6991 44.2697 96.5479 44.2622" fill="#2F2E41"/>
</g>
<defs>
<clipPath id="clip0_251_899">
<rect width="261" height="148" fill="white"/>
</clipPath>
</defs>
</svg>
